<svg width="22" height="20" viewBox="0 0 22 20" fill="none" xmlns="http://www.w3.org/2000/svg">
<g id="2 User">
<path id="Fill 1" d="M8.08427 13.1753C3.72408 13.1753 0 13.8556 0 16.5749C0 19.2963 3.7004 20 8.08427 20C12.4445 20 16.1685 19.3197 16.1685 16.6004C16.1685 13.8791 12.4681 13.1753 8.08427 13.1753Z" fill="white"/>
<path id="Fill 3" d="M8.08468 10.5831C11.0543 10.5831 13.434 8.22908 13.434 5.29157C13.434 2.35406 11.0543 0 8.08468 0C5.11618 0 2.73535 2.35406 2.73535 5.29157C2.73535 8.22908 5.11618 10.5831 8.08468 10.5831Z" fill="white"/>
<path id="Fill 5" d="M15.5912 5.38748C15.5912 6.88338 15.137 8.27921 14.3406 9.43867C14.2577 9.55792 14.3309 9.71869 14.4751 9.74424C14.6753 9.77724 14.8809 9.79747 15.0908 9.80173C17.1788 9.85603 19.0527 8.52622 19.5704 6.52352C20.3378 3.55193 18.0862 0.883789 15.2178 0.883789C14.9067 0.883789 14.6086 0.91573 14.318 0.974289C14.2781 0.982806 14.2351 1.00197 14.2136 1.03604C14.1856 1.07969 14.206 1.13612 14.234 1.17339C15.0961 2.36905 15.5912 3.8245 15.5912 5.38748Z" fill="white"/>
<path id="Fill 7" d="M21.7567 13.5216C21.3746 12.7156 20.4522 12.163 19.0487 11.8915C18.3867 11.7318 16.5936 11.505 14.9264 11.537C14.9016 11.5402 14.8876 11.5572 14.8855 11.5679C14.8822 11.5849 14.8898 11.6104 14.922 11.6285C15.6927 12.0054 18.6709 13.6451 18.2963 17.1032C18.2802 17.2544 18.4018 17.3822 18.5536 17.3609C19.2865 17.2576 21.1723 16.8562 21.7567 15.6084C22.0807 14.9483 22.0807 14.1817 21.7567 13.5216Z" fill="white"/>
</g>
</svg>
