<svg width="24" height="25" viewBox="0 0 24 25" fill="none" xmlns="http://www.w3.org/2000/svg">
<g id="akar-icons:arrow-forward-thick-fill">
<rect y="0.5" width="24" height="24" rx="4" fill="#1E1E1F"/>
<g id="Group">
<path id="Vector" fill-rule="evenodd" clip-rule="evenodd" d="M14.0381 4.29061C14.1859 4.23987 14.3459 4.2366 14.4957 4.28124C14.6455 4.32588 14.7776 4.41621 14.8736 4.53961L20.1236 11.2896C20.226 11.4213 20.2816 11.5833 20.2816 11.7501C20.2816 11.9169 20.226 12.079 20.1236 12.2106L14.8736 18.9606C14.7776 19.0839 14.6455 19.1741 14.4958 19.2186C14.346 19.2632 14.1861 19.2599 14.0383 19.2092C13.8906 19.1585 13.7623 19.0629 13.6715 18.9358C13.5807 18.8086 13.5319 18.6563 13.5318 18.5001V15.5076C9.49756 15.5916 7.55956 16.3574 6.58606 17.1899C5.66056 17.9811 5.49106 18.9119 5.31481 19.8869L5.26906 20.1381C5.2354 20.3179 5.13721 20.4792 4.99295 20.5916C4.8487 20.7041 4.66832 20.7599 4.48576 20.7487C4.3032 20.7374 4.13105 20.6599 4.00168 20.5306C3.87231 20.4013 3.79465 20.2292 3.78331 20.0466C3.65431 17.9856 3.84781 14.9991 5.30356 12.5009C6.71656 10.0761 9.26056 8.21161 13.5318 8.01661V5.00011C13.5318 4.84384 13.5805 4.69147 13.6713 4.56427C13.7621 4.43707 13.8903 4.34139 14.0381 4.29061Z" fill="#4B4B4E"/>
</g>
</g>
</svg>
