<svg width="33" height="32" viewBox="0 0 33 32" fill="none" xmlns="http://www.w3.org/2000/svg">
<g id="cib:apple" clip-path="url(#clip0_3_1866)">
<path id="Vector" d="M9.49357 31.401C8.86266 30.9813 8.30349 30.4626 7.83757 29.865C7.32505 29.2482 6.85019 28.601 6.41557 27.927C5.39565 26.4328 4.5958 24.7998 4.04057 23.078C3.37357 21.078 3.05057 19.161 3.05057 17.286C3.05057 15.192 3.50357 13.364 4.38957 11.828C5.04635 10.6275 6.01198 9.6242 7.18657 8.92202C8.32488 8.215 9.63281 7.82807 10.9726 7.80202C11.4416 7.80202 11.9466 7.87002 12.4826 8.00002C12.8676 8.10902 13.3366 8.28102 13.9096 8.49502C14.6386 8.77602 15.0396 8.94802 15.1756 8.99002C15.6026 9.14602 15.9616 9.21402 16.2436 9.21402C16.4576 9.21402 16.7596 9.14602 17.1026 9.04202C17.2956 8.97402 17.6596 8.85402 18.1806 8.63102C18.6966 8.44302 19.1026 8.28202 19.4256 8.16202C19.9206 8.01602 20.3996 7.88102 20.8266 7.81302C21.3328 7.73322 21.8465 7.71208 22.3576 7.75002C23.2432 7.80791 24.1155 7.99558 24.9466 8.30702C26.3056 8.85402 27.4046 9.70802 28.2226 10.922C27.8768 11.1351 27.5523 11.3809 27.2536 11.656C26.6032 12.2326 26.0492 12.9095 25.6126 13.661C25.0419 14.6881 24.746 15.8451 24.7536 17.02C24.7746 18.463 25.1446 19.734 25.8736 20.833C26.4095 21.6475 27.1061 22.3441 27.9206 22.88C28.3376 23.161 28.6966 23.354 29.0406 23.484C28.8796 23.984 28.7076 24.468 28.5046 24.948C28.0442 26.0244 27.4862 27.0564 26.8376 28.031C26.2596 28.87 25.8066 29.495 25.4626 29.911C24.9266 30.546 24.4106 31.031 23.8896 31.369C23.3166 31.749 22.6396 31.952 21.9516 31.952C21.4856 31.9699 21.0198 31.9135 20.5716 31.785C20.1866 31.655 19.8056 31.514 19.4306 31.353C19.0407 31.174 18.6387 31.0226 18.2276 30.9C17.2113 30.639 16.1457 30.6373 15.1286 30.895C14.7116 31.015 14.3106 31.155 13.9146 31.327C13.3576 31.561 12.9876 31.718 12.7736 31.785C12.3466 31.91 11.9036 31.988 11.4556 32.014C10.7626 32.014 10.1166 31.816 9.47657 31.415L9.49357 31.401ZM18.6336 6.78602C17.7276 7.23902 16.8626 7.43202 16.0036 7.36902C15.8686 6.50402 16.0036 5.61902 16.3626 4.65002C16.6682 3.82909 17.1198 3.07021 17.6956 2.41002C18.3036 1.71505 19.0414 1.1454 19.8676 0.733023C20.7476 0.280023 21.5866 0.0350234 22.3886 -0.000976562C22.4926 0.905023 22.3886 1.79602 22.0556 2.75902C21.7474 3.61031 21.2966 4.40295 20.7226 5.10302C20.1366 5.79895 19.4176 6.37081 18.6076 6.78502L18.6336 6.78602Z" fill="#666666"/>
</g>
<defs>
<clipPath id="clip0_3_1866">
<rect width="32" height="32" fill="white" transform="translate(0.0555725)"/>
</clipPath>
</defs>
</svg>
