<svg width="24" height="25" viewBox="0 0 24 25" fill="none" xmlns="http://www.w3.org/2000/svg">
<g id="Iconly/Bulk/Notification">
<g id="Notification">
<path id="Fill 1" d="M19.7695 12.6453C19.039 11.7923 18.7071 11.0531 18.7071 9.79716V9.37013C18.7071 7.73354 18.3304 6.67907 17.5115 5.62459C16.2493 3.98699 14.1244 3 12.0442 3H11.9558C9.91935 3 7.86106 3.94167 6.577 5.5128C5.71333 6.58842 5.29293 7.68822 5.29293 9.37013V9.79716C5.29293 11.0531 4.98284 11.7923 4.23049 12.6453C3.67691 13.2738 3.5 14.0815 3.5 14.9557C3.5 15.8309 3.78723 16.6598 4.36367 17.3336C5.11602 18.1413 6.17846 18.6569 7.26375 18.7466C8.83505 18.9258 10.4063 18.9933 12.0005 18.9933C13.5937 18.9933 15.165 18.8805 16.7372 18.7466C17.8215 18.6569 18.884 18.1413 19.6363 17.3336C20.2118 16.6598 20.5 15.8309 20.5 14.9557C20.5 14.0815 20.3231 13.2738 19.7695 12.6453Z" fill="#FE1F27"/>
<path id="Fill 4" opacity="0.4" d="M14.0088 20.2284C13.5088 20.1216 10.4627 20.1216 9.96275 20.2284C9.53539 20.3271 9.07324 20.5567 9.07324 21.0603C9.09809 21.5407 9.37935 21.9647 9.76895 22.2336L9.76795 22.2346C10.2718 22.6274 10.8632 22.8771 11.4824 22.9668C11.8123 23.0121 12.1482 23.0101 12.4901 22.9668C13.1083 22.8771 13.6997 22.6274 14.2036 22.2346L14.2026 22.2336C14.5922 21.9647 14.8734 21.5407 14.8983 21.0603C14.8983 20.5567 14.4361 20.3271 14.0088 20.2284Z" fill="#FE1F27"/>
</g>
<circle id="Ellipse 403" cx="22" cy="2" r="2" fill="#FE1F27"/>
</g>
</svg>
