<svg width="54" height="42" viewBox="0 0 54 42" fill="none" xmlns="http://www.w3.org/2000/svg">
<path id="Vector" fill-rule="evenodd" clip-rule="evenodd" d="M11.0297 41.9996V14.1703C11.0297 12.7138 11.2014 11.5975 10.3415 10.3109C9.63421 9.25147 8.41118 8.09749 6.86262 7.32176C5.83024 6.79205 4.62624 6.45147 3.36473 6.45147C3.13517 6.45147 2.90561 6.45147 2.6955 6.47029C3.93799 5.54352 6.00231 4.84352 7.89456 4.54059C6.00231 2.87573 3.55538 2.81883 0.936833 2.85691C0.630752 2.87573 0.306081 2.87573 0 2.89456C2.02628 1.17323 5.69622 0 9.90181 0C11.1253 0 12.2912 0.0945599 13.3807 0.28368C16.2482 0.756479 19.0964 2.06192 20.6635 3.87824L32.4961 18.5778L45.2654 2.8H53.1786C53.6373 2.8 54 3.15941 54 3.61339V4.78619L48.2843 6.26192C47.8637 6.35691 47.5969 6.73515 47.6925 7.0753C47.7686 7.41589 48.1888 7.60501 48.6094 7.49163L54 6.09205V7.41632L48.2843 8.89205C47.8637 9.00587 47.5969 9.36485 47.6925 9.70587C47.7686 10.0465 48.1888 10.2356 48.6094 10.1218L54 8.74059V10.0649L48.2843 11.5406C47.8637 11.6351 47.5969 12.0134 47.6925 12.354C47.7686 12.6946 48.1888 12.8837 48.6094 12.7703L54 11.3703V12.6946L48.2843 14.1703C47.8637 14.2841 47.5969 14.6431 47.6925 14.9837C47.7686 15.3243 48.1888 15.5134 48.6094 15.4L54 14.0188V15.3431L48.2843 16.8188C47.8637 16.9134 47.5969 17.2916 47.6925 17.6322C47.7686 17.9728 48.1888 18.1619 48.6094 18.0485L54 16.6485V17.9732L48.2843 19.4485C47.8637 19.5623 47.5969 19.9213 47.6925 20.2623C47.7686 20.6025 48.1888 20.7921 48.6094 20.6782L54 19.2971V20.6025L48.2843 22.0971C47.8637 22.1916 47.5969 22.5699 47.6925 22.9105C47.7686 23.2322 48.1888 23.4213 48.6094 23.3268L54 21.9268V23.251L48.2843 24.7268C47.8637 24.8402 47.5969 25.1996 47.6925 25.5402C47.7686 25.8803 48.1888 26.0699 48.6094 25.9565L54 24.5753V25.8803L48.2843 27.3561C47.8637 27.4699 47.5969 27.8477 47.6925 28.1694C47.7686 28.51 48.1888 28.6991 48.6094 28.6046L54 27.205V28.5293L48.2843 30.005C47.8637 30.1184 47.5969 30.4778 47.6925 30.8184C47.7686 31.159 48.1888 31.3481 48.6094 31.2347L54 29.8535V31.159L48.2843 32.6343C47.8637 32.7481 47.5969 33.1071 47.6925 33.4477C47.7686 33.7883 48.1888 33.9774 48.6094 33.8833L54 32.4832V33.8079L48.2843 35.2833C47.8637 35.3971 47.5969 35.7561 47.6925 36.0966C47.7686 36.4372 48.1888 36.6263 48.6094 36.513L54 35.1318V36.4372L48.2843 37.913C47.8637 38.0263 47.5969 38.3853 47.6925 38.7263C47.7686 39.0665 48.1888 39.2556 48.6094 39.1615L54 37.7615V41.205C53.9814 41.6402 53.6183 41.9991 53.1786 41.9991H44.2707V17.7272L32.4961 32.0678L20.836 17.7272V42H11.0297V41.9996Z" fill="#0DB760"/>
</svg>
